<svg xmlns="http://www.w3.org/2000/svg" width="1920" height="480"><path d="M23.46.377c-1.62-.03-8.65-.05-12.75-.05H0v3.85c8.62 0 18.85-.02 23.33.05.8.01 1.59.09 2.22.65.59.52.79 1.34.53 2.05-.42 1.15-1.59 1.43-2.75 1.45-1.78.03-6.65.04-10.29.04-8.93.01-5.06 0-13.04 0v3.84c8.62 0 18.87-.02 23.33.05 1.39.02 2.86.5 2.86 2.06s-1.47 2.06-2.86 2.08c-4.45.07-14.71.05-23.33.05v3.85c8.65 0 19.97.03 23.46-.05 1.84-.04 4.57-.51 6.15-2.91 1.49-2.25 1.13-5.18-.83-7.05 1.96-1.88 2.32-4.81.83-7.05-1.59-2.4-4.31-2.86-6.15-2.91m68.72.058c-2.28-.05-5.73-.08-8.77-.09-7.42-.03-2.96-.02-10.03-.02v3.86c7.53 0 12.8-.06 18.61.1 1.71.05 3.54.23 5.19 1.37 1.56 1.08 2.49 2.81 2.49 4.67s-.9 3.59-2.46 4.68c-1.65 1.14-3.48 1.32-5.19 1.37-5.81.16-11.09.1-18.61.1l-.03 3.86c7.57 0 13.01.03 18.8-.11 2.32-.05 5.17-.32 7.81-2.21 2.5-1.79 4.01-4.6 4.01-7.7s-1.51-5.91-4.01-7.7v.03C97.36.755 94.5.485 92.18.435M39.61 6.267c-.01-1.86 0-4.06 0-5.94h-4.45c0 1.9-.04 5.76.04 7.63.15 3.62 1.33 4.75 5.03 4.88 2.57.09 4.6.06 8.15.05v-3.88c-2.84 0-4 0-6.1-.03-2.02-.04-2.66-.7-2.67-2.71m16.46 2.74c2.08 0 4.62-.01 5.58-.03 2.02-.04 2.66-.68 2.67-2.64h.03V.327h4.44v5.84c-.01.68-.02 1.3-.04 1.79-.15 3.65-1.34 4.76-5.27 4.88-1.28.05-4.68.05-7.4.05h-.53v7.46h-5.23V9.007Z" style="fill:#d70c19" transform="translate(60 61.074)scale(17.3077)"/></svg>