<svg xmlns="http://www.w3.org/2000/svg" width="500" height="192.31" viewBox="0 0 500 192.31"><path fill="#313131" d="M13.356 164.57c0-9.19 7.474-16.641 16.692-16.641h53.304l6.676-11.093H27.823a27.84 27.84 0 0 0-22.256 11.096A27.55 27.55 0 0 0 0 164.567a27.55 27.55 0 0 0 5.567 16.641 27.82 27.82 0 0 0 22.253 11.103h55.532l6.677-11.093H30.048a16.69 16.69 0 0 1-15.737-11.093 16.6 16.6 0 0 1-.956-5.545v-.006zm383.99-11.093c0-9.192-7.474-16.641-16.692-16.641h-73.336l6.676 11.096h66.66c3.074 0 5.564 2.48 5.564 5.545s-2.49 5.545-5.564 5.545h-73.336v33.288h13.353v-22.192h49.36l12.852 22.192h14.465l-13.077-22.587a16.654 16.654 0 0 0 13.077-16.247m83.766-16.641-31.705 24.32-31.705-24.32h-19.583l43.385 33.282v22.192h15.112v-22.19l43.388-33.284zm-262.86 16.503a5.555 5.555 0 0 1 5.555-5.41h64.446l6.68-11.093h-73.34c-9.219 0-16.697 7.451-16.697 16.64v38.83h83.356l6.68-11.092h-76.68V170.12h56.644l6.68-11.096h-63.325zm141.11-87.048c-7.032 3.18-15.25 2.282-21.503-2.234l-8.253-5.962-55.564-40.109-.186-.131-.166-.122-.391-.272c-2.283-1.587-9.334-6.356-14.548-8.44q-.032.017-.064.04a16 16 0 0 0-1.25-.52c-.036-.013-.065-.029-.1-.035a21 21 0 0 0-4.086-1.065c2.122.013 4.221.042 6.314.09l1.388.029c34.76.846 65.64 5.696 87.263 12.971h.01c19.92 6.699 31.984 15.465 31.984 25.045 0 7.638-7.66 14.75-20.853 20.715zM302.57 80.476c-16.077 2.083-33.862 3.24-52.56 3.24-18.703 0-36.485-1.154-52.562-3.237-14.686-2.644-7.612-12.571-3.766-16.833a.7.7 0 0 1 .122-.125 29 29 0 0 1 1.779-1.82c.016-.01.019-.02.019-.02a424 424 0 0 1 7.647-7.538 438 438 0 0 1 25.93-23.096c2.67-2.196 5.34-4.337 8-6.41l.02-.013a16 16 0 0 1 .874-.677c2.045-1.516 7.238-4.98 11.936-4.968 4.696-.012 9.888 3.452 11.93 4.968.105.07.195.141.282.212l.234.176c.105.077.192.148.246.196l.093.073.042.032a419 419 0 0 1 8.007 6.41 440 440 0 0 1 25.92 23.097 415 415 0 0 1 7.67 7.557l.067.071c.237.211.878.833 1.682 1.711l.01.01c3.814 4.174 11.234 14.308-3.621 16.987zm-140.42-16.42c-6.25 4.516-14.468 5.413-21.497 2.234-13.192-5.962-20.856-13.077-20.856-20.715 0-9.58 12.067-18.346 31.987-25.045 21.615-7.273 52.51-12.125 87.27-12.971l1.39-.03c2.1-.047 4.199-.076 6.32-.089a20.6 20.6 0 0 0-4.092 1.064c-.013.006-.04.006-.048.013a20 20 0 0 0-1.301.545l-.064-.042c-5.215 2.084-12.27 6.853-14.551 8.44l-.385.272-.359.256-55.561 40.106-8.256 5.962zm188.17-51.292C328.93 6.386 301.992 2.008 272.207.546A449 449 0 0 0 250.874 0h-1.746c-7.244.013-14.36.195-21.327.545-29.795 1.461-56.731 5.833-78.125 12.218-30.641 9.14-49.91 22.404-49.91 37.163 0 12.5 13.83 23.936 36.67 32.692 9.272 3.551 20.032 6.673 31.965 9.234 9.698 2.093 20.179 3.827 31.26 5.128 15.737 1.859 32.686 2.878 50.343 2.878 17.654 0 34.599-1.016 50.336-2.878a334 334 0 0 0 31.263-5.128c11.93-2.564 22.692-5.683 31.965-9.234 22.843-8.757 36.667-20.192 36.667-32.692 0-14.756-19.272-28.022-49.91-37.163zm-171.23 124.07v22.189h-63.32v-22.19h-13.357v55.475h13.356v-22.192h63.321v22.192h13.356v-55.474z"/></svg>