<svg xmlns="http://www.w3.org/2000/svg" viewBox="0 0 555.613 420.698"><title>FIAT-LOGO</title><path d="M145.605 0h60.35v420.698h-60.35ZM404.32 0v50.76h46.79v369.938h58.473V50.761h46.03V0ZM0 420.698h58.475V229.84h49.8v-50.066h-49.8V50.761h64.967V0H0Zm412.072-27.558q.019 13.829.015 27.558h-54.694q-.072-23.873-.109-47.982c-.045-16.048-.12-32.123-.294-48.144-.346-32.01-1.08-63.895-2.753-94.732h-64.33v190.858h-52.52V0H360.79a315 315 0 0 1 18.955 44.957 442 442 0 0 1 13.198 48.706c3.585 16.748 6.435 34.018 8.726 51.59 2.291 17.565 4.034 35.538 5.38 53.67 1.347 18.124 2.306 36.563 3.003 55.019.697 18.437 1.142 37.136 1.433 55.694.291 18.514.437 37.323.514 55.766q.058 13.904.073 27.738m-61.56-213.366c-4.701-48.102-12.763-92.623-26.722-129.013h-33.882v129.013Z"/></svg>