<svg xmlns="http://www.w3.org/2000/svg" xml:space="preserve" width="1920" height="1080" viewBox="0 0 1920 1080"><path d="M909.105 888.587C301.207 871.716-98.213 655.425 76.845 437.91c219.97-273.323 1181.746-334.863 1628.028-104.171 384.163 198.581 119.54 481.239-509.088 543.782-86.673 8.624-207.151 13.274-286.68 11.067m146.114-35.512c746.856-31.164 1061.948-348.403 532.838-536.468C1053.862 126.734 132.012 248.93 73.46 517.377 31.085 711.653 511.074 875.78 1055.22 853.074M895.696 828.03C269.827 811.743-95.482 583.499 210.239 399.759c334.369-200.958 1209.194-194.22 1519.14 11.7 299.279 198.832-170.994 433.816-833.683 416.57M566.939 716.615c54.673-9.307 95.468-53.135 189.926-204.042 10.82-17.289 10.82-17.289 14.716-17.796 2.142-.28 13.882-1.571 26.089-2.87 21.613-2.302 48.928-5.94 58.26-7.76 3.852-.751 4.779-.661 5.55.54 7.886 12.3 25.487 21.048 28.09 13.963 1.599-4.352 1.954-8.156.792-8.48-13.271-3.705-19.023-9.762-12.468-13.131 36.21-18.61 41.411-64.162 7.325-64.162-19.235 0-35.072 23.777-30.874 46.353.764 4.108.791 5.993.092 6.425-2.152 1.33-52.565 7.508-68.926 8.446-5.86.336-6.415 1.668 8.79-21.081 21.178-31.687 45.063-58.273 73.19-81.465 15.317-12.63 18.88-16.664 18.288-20.702-.517-3.52-4.202-4.44 38.781 9.687 135.314 44.473 193.695 47.759 259.733 14.619 46.48-23.324 53.16-52.297 9.754-42.3-65.5 15.084-181.965 10.11-324.398-13.856-185.306-31.178-314.301 8.967-321.985 100.207-8.282 98.346 123.315 92.885 156.542-6.496 6.044-18.078-2.727-25.875-11.539-10.256-25.755 45.648-96.694 58.05-100.442 17.559-5.55-59.955 93.571-106.39 196.197-91.91 19.214 2.71 73.976 13.554 84.115 16.656.488.15-2.575 2.115-6.806 4.369-33.902 18.058-95.337 81.35-123.65 127.388-.1.163-6.152 1.09-13.449 2.062-45.027 5.99-73.221 16.926-79.437 30.81-3.876 8.658 3.525 12.964 11.225 6.53 9.232-7.712 29.583-13.819 57.035-17.115 12.136-1.457 12.05-2.135 1.54 12.25-75.902 103.876-131.974 148.694-186.071 148.728-61.255.037-67.477-86.692-8.425-117.433 18.016-9.379 10.951-19.86-8.998-13.35-129.12 42.128-82.959 210.492 51.438 187.613m303.684-256.301c-2.826-18.107 5.299-32.64 18.25-32.64 7.45 0 5.101 17.912-3.657 27.887-7.663 8.728-13.667 10.684-14.593 4.753m-21.938 256.29c32.996-6.815 63.649-31.147 93.986-74.604 47.383-67.876 84.63-100.94 98.307-87.263 4.398 4.399 4.424 7.544.172 20.9-4.592 14.428-9.117 22.86-44.058 82.111-18.384 31.174-33.425 56.87-33.425 57.105 0 10.615 53.522-2.043 59.872-14.16 10.228-19.519 49.193-91.115 50.083-92.025.389-.398 1.24 1.059 1.892 3.237 9.7 32.392 51.91 46.054 91.983 29.771 6.682-2.715 6.277-3.183 5.135 5.922-7.842 62.538 68.114 89.197 129.532 45.464 2.073-1.476 2.848-1.658 3.14-.738.214.672.847 2.719 1.408 4.548 5.991 19.537 31.124 25.144 59.73 13.325 35.675-14.74 100.004-81.814 88.405-92.178-4.8-4.289-5.421-3.915-23.068 13.89-42.13 42.508-75.168 62.538-83.124 50.395-4.513-6.888-7.387-1.213 69.88-138 35.161-62.246 63.93-113.328 63.93-113.515 0-.188-10.924-.338-24.276-.334-26.994.008-18.373-10.324-83.106 99.608-18.606 31.596-17.561 30.18-19.108 25.923-10.22-28.116-34.77-40.428-68.748-34.478-26.756 4.686-39.923 13.565-80.345 54.18-41.47 41.668-58.701 50.971-85.43 46.124-26.18-4.747-34.167-43.205-11.905-57.323 5.447-3.454 4.97-3.596 7.877 2.333 18.362 37.44 75.5 10.774 60.813-28.38-10.813-28.822-50.845-26.488-82.452 4.807-9.834 9.737-9.834 9.737-10.263 3.057-1.247-19.425-15.65-30.78-39.047-30.78-22.437 0-45.336 18.255-87.466 69.725-5.977 7.302-5.977 7.302-6.556-7.398-1.428-36.264-17.9-61.88-33.564-52.2-6.32 3.907-9.286 13.432-5.56 17.86 15.68 18.634 14.855 61.847-1.687 88.43-53.333 85.703-139.866 61.42-98.151-27.546 15.333-32.7 45.283-56.397 79.662-63.027 13.686-2.64 3.23-19.37-12.106-19.37-45.235 0-74.204 25.282-110.794 96.691-12.136 23.686-14.511 27.69-19.996 33.709-6.347 6.965-27.606 24.517-31.486 25.996-4.142 1.58 4.18 16.537 9.2 16.537 4.383 0 26.273-13.517 34.517-21.313 4.801-4.541 4.801-4.541 6.463.756 9.85 31.393 44.177 49.573 79.734 42.228m385.016-35.483c-34.391-10.499-11.771-83.4 36.528-117.725 38.538-27.389 72.297-12.364 58.675 26.113-1.53 4.323-3.027 8.59-3.325 9.48-.419 1.25.115 1.751 2.34 2.196 3.72.744 4.193-.43-5.858 14.576-32.761 48.912-64.744 72.57-88.36 65.36" style="fill:#000;stroke-width:.924774;fill-opacity:1"/></svg>