<svg xmlns="http://www.w3.org/2000/svg" width="500" height="92.322" viewBox="0 0 132.292 24.427"><defs><clipPath id="a" clipPathUnits="userSpaceOnUse"><path d="M-171.542-518.97h841.89V76.304h-841.89Z"/></clipPath><clipPath id="b" clipPathUnits="userSpaceOnUse"><path d="M-147.072-533.432h841.89V61.844h-841.89Z"/></clipPath><clipPath id="c" clipPathUnits="userSpaceOnUse"><path d="M-119.877-530.645h841.89V64.631h-841.89Z"/></clipPath><clipPath id="d" clipPathUnits="userSpaceOnUse"><path d="M-86.189-521.396h841.89V73.88h-841.89Z"/></clipPath><clipPath id="e" clipPathUnits="userSpaceOnUse"><path d="M-171.542-518.97h841.89V76.304h-841.89Z"/></clipPath><clipPath id="f" clipPathUnits="userSpaceOnUse"><path d="M-147.072-533.432h841.89V61.844h-841.89Z"/></clipPath><clipPath id="g" clipPathUnits="userSpaceOnUse"><path d="M-119.877-530.645h841.89V64.631h-841.89Z"/></clipPath><clipPath id="h" clipPathUnits="userSpaceOnUse"><path d="M-86.189-521.396h841.89V73.88h-841.89Z"/></clipPath></defs><path d="M0 0v14.354c.02.327-.091.446-.512.446h-4.374c-.401.014-.998-.196-1.181-.609l-5.274-10.876s-.049-.068-.131-.068c-.089 0-.162.087-.162.087l-5.236 10.815c-.154.371-.744.678-1.221.651h-4.357c-.459-.015-.516-.133-.534-.446V-.021c.031-.474.38-.688.63-.688h4.817c.231.027.228.157.267.389v7.867s-.012.166.1.202c.163.049.263-.189.263-.189l3.675-7.756c.172-.343.293-.513.637-.513h2.22c.344 0 .476.17.666.513l3.679 7.77s.075.175.232.149c.112-.019.129-.152.129-.152V-.34c.018-.247.025-.369.293-.369h4.773C-.39-.682-.024-.422 0 0" clip-path="url(#a)" style="fill:#000;fill-opacity:1;fill-rule:nonzero;stroke:none" transform="matrix(.35278 0 0 -.35278 213.541 132.34)"/><path d="M0 0q.144.39-.403.389h-4.258c-.422.014-.829-.346-.947-.805L-8.38-9.037s-.03-.153-.164-.153c-.137-.001-.171.159-.171.159l-2.934 8.97c-.097.315-.274.464-.712.45h-.979c-.459-.027-.564-.184-.679-.47l-2.926-8.956s-.033-.174-.168-.174c-.137 0-.172.183-.172.183l-2.793 8.573c-.081.465-.495.844-.802.844h-4.46c-.365 0-.465-.168-.35-.414l4.87-14.582c.134-.328.383-.533.746-.548h3.22c.536-.027.851.192.947.588l2.724 7.87s.078.373.325.373c.249 0 .325-.371.325-.371l2.724-7.893c.096-.366.403-.58.919-.567h3.282c.442-.013.719.205.834.588z" clip-path="url(#b)" style="fill:#000;fill-opacity:1;fill-rule:nonzero;stroke:none" transform="matrix(.35278 0 0 -.35278 204.909 127.238)"/><path d="m0 0-.001 2.623c0 .258-.077.297-.156.376-.109.111-.333.118-1.009.118h-16.23q-2.064-.02-3.281-.615c-.787-.423-2.387-1.445-2.387-4.624V-6.82c0-3.836 1.576-4.438 2.241-4.835q1.288-.737 3.427-.737h12.782c1.378 0 2.209.163 3.006.627.887.516 1.565 1.459 1.565 4.26v3.162c0 .698.106 1.154-.78 1.154h-12.054c-.344-.015-.382-.103-.406-.266v-2.2c0-.163.114-.3.406-.3h6.412c.944 0 .944.011.944-.498v-1.474c0-.399-.369-.934-1.21-.934h-9.456c-1.307 0-1.375.792-1.375 1.356v5.801c0 .85.268 1.397 1.601 1.397L-2.295-.31h1.943C-.138-.31 0-.195 0 0" clip-path="url(#c)" style="fill:#000;fill-opacity:1;fill-rule:nonzero;stroke:none" transform="matrix(.35278 0 0 -.35278 195.315 128.222)"/><path d="M0 0a7.8 7.8 0 0 1 1.228 3.611q.081.92.014 1.838c-.03.404-.069.81-.143 1.207-.167.893-.526 1.713-.985 2.482-.839 1.407-1.953 2.548-3.278 3.47-1.194.831-2.49 1.45-3.852 1.927-2.158.756-4.382 1.131-6.655 1.214-1.937.071-3.858-.074-5.755-.494a19.6 19.6 0 0 1-4.216-1.426c-1.729-.825-3.258-1.936-4.526-3.408-1.192-1.385-1.895-2.996-2.069-4.841a8.6 8.6 0 0 1 .23-2.954c.564-2.216 1.763-3.994 3.537-5.363.939-.724 1.974-1.264 3.075-1.684 1.471-.562 2.953-1.06 4.534-1.148.794-.044 1.583-.005 2.343.248.861.287 1.407.891 1.641 1.797.174.676.223 1.362.223 2.056v11.991c-.005.203-.05.234-.223.141-.168-.09-.331-.191-.5-.28q-2.629-1.374-5.261-2.74c-.099-.051-.137-.11-.141-.221a920 920 0 0 0-.137-3.711c-.03-.767-.048-1.535-.175-2.293-.136-.809-.498-1.503-1.093-2.047a2.85 2.85 0 0 0-1.743-.765c-.535-.041-1.054-.005-1.563.192-1.231.477-2.103 1.351-2.673 2.553-.693 1.461-.88 3.007-.65 4.604.202 1.395.764 2.637 1.603 3.746 1.048 1.385 2.37 2.423 3.883 3.213 1.903.993 3.94 1.516 6.047 1.776.667.082 1.339.126 2.01.167a18 18 0 0 0 3.254-.077 19.7 19.7 0 0 0 3.442-.717c1.584-.483 3.092-1.142 4.472-2.089 1.496-1.026 2.648-2.356 3.39-4.05q.51-1.167.623-2.441a8.8 8.8 0 0 0-.082-2.17C-.367 2.088-.809.976-1.633.055-2.568-.989-3.72-1.511-5.114-1.362A2.83 2.83 0 0 0-7.159-.184c-.574.778-.801 1.676-.833 2.637l-.101 3.024c-.018.552-.05 1.105-.055 1.658-.004.441.043.433-.393.656a726 726 0 0 0-3.614 1.865c-.586.305-1.165.627-1.749.937-.106.055-.222.088-.36.142v-.178q-.006-4.635-.005-9.27 0-1.84.031-3.679c.008-.478.086-.949.259-1.4.205-.535.497-.989 1.006-1.276.499-.28 1.033-.411 1.59-.466.853-.085 1.702-.026 2.545.119 1.373.236 2.686.673 3.956 1.256C-2.878-3.239-1.219-1.896 0 0" clip-path="url(#d)" style="fill:#000;fill-opacity:1;fill-rule:nonzero;stroke:none" transform="matrix(.35278 0 0 -.35278 183.43 131.484)"/><path d="M0 0v14.354c.02.327-.091.446-.512.446h-4.374c-.401.014-.998-.196-1.181-.609l-5.274-10.876s-.049-.068-.131-.068c-.089 0-.162.087-.162.087l-5.236 10.815c-.154.371-.744.678-1.221.651h-4.357c-.459-.015-.516-.133-.534-.446V-.021c.031-.474.38-.688.63-.688h4.817c.231.027.228.157.267.389v7.867s-.012.166.1.202c.163.049.263-.189.263-.189l3.675-7.756c.172-.343.293-.513.637-.513h2.22c.344 0 .476.17.666.513l3.679 7.77s.075.175.232.149c.112-.019.129-.152.129-.152V-.34c.018-.247.025-.369.293-.369h4.773C-.39-.682-.024-.422 0 0" clip-path="url(#e)" style="fill:#e60000;fill-opacity:1;fill-rule:nonzero;stroke:none;stroke-width:.308352" transform="matrix(1.14407 0 0 -1.14407 132.29 20.812)"/><path d="M0 0q.144.39-.403.389h-4.258c-.422.014-.829-.346-.947-.805L-8.38-9.037s-.03-.153-.164-.153c-.137-.001-.171.159-.171.159l-2.934 8.97c-.097.315-.274.464-.712.45h-.979c-.459-.027-.564-.184-.679-.47l-2.926-8.956s-.033-.174-.168-.174c-.137 0-.172.183-.172.183l-2.793 8.573c-.081.465-.495.844-.802.844h-4.46c-.365 0-.465-.168-.35-.414l4.87-14.582c.134-.328.383-.533.746-.548h3.22c.536-.027.851.192.947.588l2.724 7.87s.078.373.325.373c.249 0 .325-.371.325-.371l2.724-7.893c.096-.366.403-.58.919-.567h3.282c.442-.013.719.205.834.588z" clip-path="url(#f)" style="fill:#e60000;fill-opacity:1;fill-rule:nonzero;stroke:none;stroke-width:.308352" transform="matrix(1.14407 0 0 -1.14407 104.293 4.268)"/><path d="m0 0-.001 2.623c0 .258-.077.297-.156.376-.109.111-.333.118-1.009.118h-16.23q-2.064-.02-3.281-.615c-.787-.423-2.387-1.445-2.387-4.624V-6.82c0-3.836 1.576-4.438 2.241-4.835q1.288-.737 3.427-.737h12.782c1.378 0 2.209.163 3.006.627.887.516 1.565 1.459 1.565 4.26v3.162c0 .698.106 1.154-.78 1.154h-12.054c-.344-.015-.382-.103-.406-.266v-2.2c0-.163.114-.3.406-.3h6.412c.944 0 .944.011.944-.498v-1.474c0-.399-.369-.934-1.21-.934h-9.456c-1.307 0-1.375.792-1.375 1.356v5.801c0 .85.268 1.397 1.601 1.397L-2.295-.31h1.943C-.138-.31 0-.195 0 0" clip-path="url(#g)" style="fill:#e60000;fill-opacity:1;fill-rule:nonzero;stroke:none;stroke-width:.308352" transform="matrix(1.14407 0 0 -1.14407 73.18 7.456)"/><path d="M0 0a7.8 7.8 0 0 1 1.228 3.611q.081.92.014 1.838c-.03.404-.069.81-.143 1.207-.167.893-.526 1.713-.985 2.482-.839 1.407-1.953 2.548-3.278 3.47-1.194.831-2.49 1.45-3.852 1.927-2.158.756-4.382 1.131-6.655 1.214-1.937.071-3.858-.074-5.755-.494a19.6 19.6 0 0 1-4.216-1.426c-1.729-.825-3.258-1.936-4.526-3.408-1.192-1.385-1.895-2.996-2.069-4.841a8.6 8.6 0 0 1 .23-2.954c.564-2.216 1.763-3.994 3.537-5.363.939-.724 1.974-1.264 3.075-1.684 1.471-.562 2.953-1.06 4.534-1.148.794-.044 1.583-.005 2.343.248.861.287 1.407.891 1.641 1.797.174.676.223 1.362.223 2.056v11.991c-.005.203-.05.234-.223.141-.168-.09-.331-.191-.5-.28q-2.629-1.374-5.261-2.74c-.099-.051-.137-.11-.141-.221a920 920 0 0 0-.137-3.711c-.03-.767-.048-1.535-.175-2.293-.136-.809-.498-1.503-1.093-2.047a2.85 2.85 0 0 0-1.743-.765c-.535-.041-1.054-.005-1.563.192-1.231.477-2.103 1.351-2.673 2.553-.693 1.461-.88 3.007-.65 4.604.202 1.395.764 2.637 1.603 3.746 1.048 1.385 2.37 2.423 3.883 3.213 1.903.993 3.94 1.516 6.047 1.776.667.082 1.339.126 2.01.167a18 18 0 0 0 3.254-.077 19.7 19.7 0 0 0 3.442-.717c1.584-.483 3.092-1.142 4.472-2.089 1.496-1.026 2.648-2.356 3.39-4.05q.51-1.167.623-2.441a8.8 8.8 0 0 0-.082-2.17C-.367 2.088-.809.976-1.633.055-2.568-.989-3.72-1.511-5.114-1.362A2.83 2.83 0 0 0-7.159-.184c-.574.778-.801 1.676-.833 2.637l-.101 3.024c-.018.552-.05 1.105-.055 1.658-.004.441.043.433-.393.656a726 726 0 0 0-3.614 1.865c-.586.305-1.165.627-1.749.937-.106.055-.222.088-.36.142v-.178q-.006-4.635-.005-9.27 0-1.84.031-3.679c.008-.478.086-.949.259-1.4.205-.535.497-.989 1.006-1.276.499-.28 1.033-.411 1.59-.466.853-.085 1.702-.026 2.545.119 1.373.236 2.686.673 3.956 1.256C-2.878-3.239-1.219-1.896 0 0" clip-path="url(#h)" style="fill:#e60000;fill-opacity:1;fill-rule:nonzero;stroke:none;stroke-width:.308352" transform="matrix(1.14407 0 0 -1.14407 34.638 18.038)"/></svg>