<svg xmlns="http://www.w3.org/2000/svg" xml:space="preserve" width="314" height="71.198" overflow="visible" viewBox="0 0 314 71.198"><path d="M34.138 52.869c-4.564 0-9.474 2.811-9.474 9 0 8.653 7.229 9.329 9.438 9.329 2.227 0 9.456-.676 9.456-9.329.019-6.189-4.874-9-9.42-9m0 15.06c-2.537 0-5.513-1.57-5.513-6.042 0-3.414 2.21-5.696 5.477-5.696 3.286 0 5.513 2.282 5.513 5.696 0 4.473-2.957 6.043-5.477 6.043" style="stroke-width:1.82558"/><path d="M50.86 70.87h3.761V56.336h5.934v-3.121H44.928v3.121h5.933z"/><path d="M71.618 52.869c-4.564 0-9.457 2.811-9.457 9 0 8.653 7.23 9.329 9.438 9.329 2.228 0 9.475-.676 9.475-9.329-.018-6.189-4.91-9-9.456-9m0 15.06c-2.538 0-5.514-1.57-5.514-6.042 0-3.943 2.757-5.696 5.477-5.696 3.304 0 5.513 2.282 5.513 5.696 0 4.473-2.939 6.043-5.476 6.043m23.805-3.724c2.501-.603 4.18-2.684 4.18-5.203 0-4.801-3.943-5.806-7.247-5.806h-8.215v17.654h3.76v-5.806h3.287l4.217 5.806h4.692l-5.075-6.554zm-3.834-2.264h-3.632v-5.605h3.541c2.775 0 4.126.877 4.126 2.684.018 1.953-1.314 2.921-4.035 2.921m30.251 5.988c-4.035 0-6.536-2.264-6.536-5.915 0-3.797 2.373-5.878 6.7-5.878 2.026 0 3.505.346 4.783.73V53.58c-1.68-.493-3.78-.712-5.13-.712-4.747 0-10.297 2.391-10.297 9.164 0 5.824 3.743 9.165 10.242 9.165 1.552 0 3.487-.201 5.221-.566v-3.505c-1.095.328-2.884.785-4.892.803zm17.196-15.061c-4.564 0-9.474 2.811-9.474 9 0 8.653 7.229 9.329 9.438 9.329 2.227 0 9.475-.676 9.475-9.329 0-6.189-4.893-9-9.439-9m0 15.06c-2.537 0-5.513-1.57-5.513-6.042 0-3.943 2.757-5.696 5.477-5.696 3.304 0 5.513 2.282 5.513 5.696 0 4.473-2.957 6.043-5.477 6.043m24.299-3.724c2.5-.603 4.18-2.684 4.18-5.203 0-4.801-3.943-5.806-7.247-5.806h-8.215v17.654h3.76v-5.806h3.286l4.218 5.806h4.691l-5.075-6.554zm-3.816-2.264h-3.633v-5.605h3.542c2.775 0 4.126.877 4.126 2.684 0 1.953-1.315 2.921-4.035 2.921m20.209-8.726h-8.105v17.653h3.76v-5.02h4.364c3.687 0 7.612-1.662 7.612-6.335 0-4.254-2.482-6.298-7.63-6.298m-.366 9.511h-3.98v-6.39h3.907c1.917 0 4.126.347 4.126 3.067-.018 2.921-2.044 3.323-4.053 3.323m19.99-9.858c-4.563 0-9.474 2.811-9.474 9 0 8.653 7.229 9.329 9.438 9.329 2.227 0 9.475-.676 9.475-9.329 0-6.189-4.893-9-9.439-9m0 15.06c-2.537 0-5.513-1.57-5.513-6.042 0-3.414 2.21-5.696 5.477-5.696 3.286 0 5.513 2.282 5.513 5.696.019 4.473-2.939 6.043-5.477 6.043m24.317-3.724c2.501-.603 4.18-2.684 4.18-5.203 0-4.801-3.942-5.806-7.247-5.806h-8.215v17.654h3.76v-5.806h3.287l4.217 5.806h4.692l-5.075-6.554zm-3.815-2.264h-3.633v-5.605h3.541c2.775 0 4.126.877 4.126 2.684 0 1.953-1.314 2.921-4.034 2.921m17.087-8.726-6.627 17.653h3.743l1.186-3.304h8.873l1.059 3.304h4.162l-6.755-17.653zm-.621 11.209 3.286-8.672 3.413 8.672z" style="stroke-width:1.82558"/><path d="M254.267 70.87h3.76V56.336h5.934v-3.121h-15.627v3.121h5.933z"/><path d="M267.649 53.216h3.761v17.653h-3.761zm17.014-.347c-4.564 0-9.457 2.811-9.457 9 0 8.653 7.23 9.329 9.439 9.329 2.227 0 9.474-.676 9.474-9.329-.018-6.189-4.91-9-9.456-9m0 15.06c-2.538 0-5.513-1.57-5.513-6.042 0-3.943 2.756-5.696 5.476-5.696 3.286 0 5.514 2.282 5.514 5.696 0 4.473-2.958 6.043-5.477 6.043" style="stroke-width:1.82558"/><path d="m310.312 65.228-8.105-11.994h-4.564v17.635h3.687V58l8.8 12.87H314V53.234h-3.688zM3.87 53.216H0v17.653h3.76V60.043L9.42 70.87h2.629l5.677-10.826V70.87h3.761V53.216h-3.87l-6.883 12.797z"/><path d="M182.284 14.386h-21.359c-.968 0-2.045-.073-2.556-.22-1.898-.51-2.793-2.172-2.793-3.87 0-1.46.803-3.231 2.83-3.852.602-.182 1.186-.2 2.428-.2h30.304V0h-30.797c-1.205 0-2.19.037-3.049.164-4.984.694-8.598 4.856-8.598 10.15 0 4.729 3.048 9.402 8.47 10.206 1.187.182 2.994.146 3.487.146h20.702c.292 0 1.333.018 1.607.054 2.464.347 3.742 2.246 3.742 4.363 0 1.79-1.095 3.834-3.523 4.272-.31.055-1.406.092-1.771.092h-31.674v6.316h32.167c.383 0 2.172-.018 2.537-.055 6.007-.547 9.147-5.458 9.147-10.661 0-4.582-2.848-9.95-8.654-10.534-1.223-.146-2.227-.127-2.647-.127m-61.138 0h-21.36c-.967 0-2.044-.073-2.556-.22-1.898-.51-2.793-2.172-2.793-3.87 0-1.46.804-3.231 2.83-3.852.602-.182 1.187-.2 2.428-.2H130V0H99.202c-1.205 0-2.19.037-3.049.164-4.983.694-8.598 4.856-8.598 10.15 0 4.729 3.049 9.402 8.47 10.206 1.187.182 2.995.146 3.487.146h20.703c.292 0 1.332.018 1.606.054 2.465.347 3.742 2.246 3.742 4.363 0 1.79-1.095 3.834-3.523 4.272-.31.055-1.406.092-1.77.092H88.594v6.316h32.167c.384 0 2.173-.018 2.538-.055 6.006-.547 9.146-5.458 9.146-10.661 0-4.582-2.866-9.95-8.653-10.534-1.223-.146-2.228-.127-2.647-.127M63.585 0h6.809v35.745h-6.809z" style="stroke-width:1.82558"/><path d="M0 35.745h6.81V6.992l28.186 28.753h9.33V0h-6.81v28.57L9.53 0H0zm269.657 0h6.809V6.992l28.187 28.753h9.329V0h-6.81v28.57L279.186 0h-9.53z"/><path d="m227.048 0-22.09 35.745h8.306l4.071-6.609h27.439l4.071 6.609h8.306L235.081 0Zm-6.335 23.44 10.35-16.795 10.334 16.795z" style="stroke-width:1.82558"/></svg>