<svg xmlns="http://www.w3.org/2000/svg" width="321.6" height="47.7" viewBox="0 0 85.09 12.621"><path d="M344.5 393.2V346h50.1l8.8 14.7 9.4-14.7h48.1v47.2h-31.6v-26.4h-1.7l-14.2 26.4H392l-14.2-26.4h-1.3v26.4z" class="st0" style="clip-rule:evenodd;fill-rule:evenodd" transform="translate(-36.856 -91.546)scale(.26458)"/><path d="M22.992 134.938s3.572-.741 3.572-3.572c0-4.604-5.609-4.604-5.609-4.604H4.233v12.594h9.128v-4.154h1.403l3.122 4.075h9.71zm-7.567-2.673h-2.143v-2.937h2.355a1.676 1.676 0 0 1 1.56 1.667c0 1.244-1.745 1.27-1.745 1.27zm34.29-5.503H36.036l-6.561 12.488h9.234l1.27-3.016h5.635l1.217 2.99h9.366zm-8.863 6.614 1.984-3.889 1.958 3.89z" class="st0" style="clip-rule:evenodd;fill-rule:evenodd;stroke-width:.264583" transform="translate(-4.233 -126.735)"/></svg>