<svg xmlns="http://www.w3.org/2000/svg" width="195.816" height="131.246"><path d="M229.039 140.364s-8.117 2.352-23.845 12.018c-14.129 8.686-19.664 14.52-19.664 14.52l-43.515-30.075s18.31-13.466 33.612-3.151l20.521 14.078 2.5-1.65-56.633-39.669s8.144-2.352 23.875-12.02c14.128-8.687 19.64-14.523 19.64-14.523l43.535 30.077s-18.31 13.469-33.611 3.151l-20.519-14.075-2.499 1.642z" style="fill:#e31b31;stroke:none" transform="translate(-87.778 -79.892)"/><path d="M195.347 181.395h-33.13v7.364h15.994l-16.556 15.467v6.172h33.639v-7.396h-16.74l16.793-15.427zm-52.637 29.743c13.25 0 16.657-3.383 16.657-10.842v-18.9h-10.512v17.769c0 2.985-2.555 4.763-6.145 4.763-3.729 0-6.124-1.785-6.124-4.809v-17.724h-10.51v18.9c0 7.46 3.405 10.843 16.634 10.843m71.854 0c13.25 0 16.657-3.383 16.657-10.842v-18.9H220.71v17.769c0 2.985-2.555 4.763-6.145 4.763-3.728 0-6.123-1.785-6.123-4.809v-17.724h-10.51v18.9c0 7.46 3.404 10.843 16.633 10.843m69.03-29.743H272.66v29.003h10.935zm-12.585 0h-14.427l-11.627 10.007v-10.007h-10.967v29.003h10.967v-10.286l10.802 10.286h14.717l-16.021-14.882zm-170.803 8.016c0-2.24 3.326-2.315 4.444-2.315 1.144 0 3.675.45 5.376 3.27h12.375c0-5.458-5.163-9.806-17.698-9.806-13.945 0-16.31 6.11-16.31 9.617 0 6.473 5.026 8.367 15.911 9.528.934.098 6.6-.168 6.6 2.557 0 2.023-3.194 2.156-4.335 2.156-1.174 0-3.353-.192-5.166-3.396H87.778c0 6.363 4.285 10.046 18.765 10.046 13.306 0 16.843-5.437 16.843-9.575 0-4.013-2.738-8.095-14.104-9.548-4.735-.615-9.075-.873-9.075-2.534" style="fill:#005d9b;stroke:none" transform="translate(-87.778 -79.892)"/></svg>